<mxfile host="app.diagrams.net" modified="2022-11-03T09:08:09.271Z" agent="5.0 (Windows NT 10.0; Win64; x64) AppleWebKit/537.36 (KHTML, like Gecko) Chrome/106.0.0.0 Safari/537.36 Edg/106.0.1370.52" etag="MxQi9vL3woeg_t0fzYYv" version="20.5.1" type="github">
  <diagram id="VrS3AXrRgCxmbk2wjC0r" name="Página-1">
    <mxGraphModel dx="1038" dy="571" grid="1" gridSize="10" guides="1" tooltips="1" connect="1" arrows="1" fold="1" page="1" pageScale="1" pageWidth="827" pageHeight="1169" math="0" shadow="0">
      <root>
        <mxCell id="0" />
        <mxCell id="1" parent="0" />
        <mxCell id="zn4TOYktsXlcLtezzBeB-1" value="Parte Estructural&lt;br&gt;Diagrama de Modulos" style="text;html=1;strokeColor=#9673a6;fillColor=#e1d5e7;align=left;verticalAlign=middle;whiteSpace=wrap;rounded=0;" parent="1" vertex="1">
          <mxGeometry x="10" y="50" width="80" height="70" as="geometry" />
        </mxCell>
        <mxCell id="zn4TOYktsXlcLtezzBeB-4" value="Vista Lógica" style="text;html=1;strokeColor=none;fillColor=none;align=center;verticalAlign=middle;whiteSpace=wrap;rounded=0;" parent="1" vertex="1">
          <mxGeometry x="10" y="10" width="180" height="30" as="geometry" />
        </mxCell>
        <mxCell id="zn4TOYktsXlcLtezzBeB-5" value="WebApp" style="shape=folder;fontStyle=1;spacingTop=10;tabWidth=40;tabHeight=14;tabPosition=left;html=1;" parent="1" vertex="1">
          <mxGeometry x="100" y="50" width="70" height="50" as="geometry" />
        </mxCell>
        <mxCell id="zn4TOYktsXlcLtezzBeB-6" value="StorageCore" style="shape=folder;fontStyle=1;spacingTop=10;tabWidth=40;tabHeight=14;tabPosition=left;html=1;" parent="1" vertex="1">
          <mxGeometry x="260" y="50" width="70" height="50" as="geometry" />
        </mxCell>
        <mxCell id="zn4TOYktsXlcLtezzBeB-7" value="BDProvider" style="shape=folder;fontStyle=1;spacingTop=10;tabWidth=40;tabHeight=14;tabPosition=left;html=1;" parent="1" vertex="1">
          <mxGeometry x="413" y="50" width="70" height="50" as="geometry" />
        </mxCell>
        <mxCell id="zn4TOYktsXlcLtezzBeB-8" value="&amp;lt;&amp;lt;import&amp;gt;&amp;gt;" style="endArrow=open;endSize=12;dashed=1;html=1;rounded=0;exitX=0;exitY=0;exitDx=70;exitDy=32;exitPerimeter=0;entryX=0;entryY=0;entryDx=0;entryDy=32;entryPerimeter=0;" parent="1" source="zn4TOYktsXlcLtezzBeB-5" target="zn4TOYktsXlcLtezzBeB-6" edge="1">
          <mxGeometry width="160" relative="1" as="geometry">
            <mxPoint x="160" y="100" as="sourcePoint" />
            <mxPoint x="320" y="100" as="targetPoint" />
          </mxGeometry>
        </mxCell>
        <mxCell id="zn4TOYktsXlcLtezzBeB-9" value="&amp;lt;&amp;lt;import&amp;gt;&amp;gt;" style="endArrow=open;endSize=12;dashed=1;html=1;rounded=0;exitX=0;exitY=0;exitDx=70;exitDy=32;exitPerimeter=0;entryX=0;entryY=0;entryDx=0;entryDy=32;entryPerimeter=0;" parent="1" source="zn4TOYktsXlcLtezzBeB-6" target="zn4TOYktsXlcLtezzBeB-7" edge="1">
          <mxGeometry width="160" relative="1" as="geometry">
            <mxPoint x="160" y="100" as="sourcePoint" />
            <mxPoint x="320" y="100" as="targetPoint" />
          </mxGeometry>
        </mxCell>
        <mxCell id="zn4TOYktsXlcLtezzBeB-10" value="InfraTI: 3 tipos de Sistemas o Servidores&lt;br&gt;Desarrollo: WebApp" style="text;html=1;strokeColor=#6c8ebf;fillColor=#dae8fc;align=left;verticalAlign=middle;whiteSpace=wrap;rounded=0;" parent="1" vertex="1">
          <mxGeometry x="100" y="120" width="190" height="90" as="geometry" />
        </mxCell>
        <mxCell id="zn4TOYktsXlcLtezzBeB-12" value="Parte Dinámica&lt;br&gt;Diagrama de Modulos" style="text;html=1;strokeColor=#9673a6;fillColor=#e1d5e7;align=left;verticalAlign=middle;whiteSpace=wrap;rounded=0;" parent="1" vertex="1">
          <mxGeometry x="10" y="220" width="80" height="70" as="geometry" />
        </mxCell>
        <mxCell id="zn4TOYktsXlcLtezzBeB-13" value="" style="rounded=0;orthogonalLoop=1;jettySize=auto;html=1;endArrow=none;endFill=0;sketch=0;sourcePerimeterSpacing=0;targetPerimeterSpacing=0;exitX=0;exitY=0;exitDx=0;exitDy=15;exitPerimeter=0;" parent="1" source="zn4TOYktsXlcLtezzBeB-16" target="zn4TOYktsXlcLtezzBeB-15" edge="1">
          <mxGeometry relative="1" as="geometry">
            <mxPoint x="190" y="235" as="sourcePoint" />
          </mxGeometry>
        </mxCell>
        <mxCell id="zn4TOYktsXlcLtezzBeB-15" value="" style="ellipse;whiteSpace=wrap;html=1;align=center;aspect=fixed;resizable=0;points=[];outlineConnect=0;sketch=0;" parent="1" vertex="1">
          <mxGeometry x="80" y="230" width="10" height="10" as="geometry" />
        </mxCell>
        <mxCell id="zn4TOYktsXlcLtezzBeB-16" value="WebApp" style="shape=module;align=left;spacingLeft=20;align=center;verticalAlign=top;" parent="1" vertex="1">
          <mxGeometry x="170" y="220" width="100" height="50" as="geometry" />
        </mxCell>
        <mxCell id="zn4TOYktsXlcLtezzBeB-17" value="Web-GUI" style="text;html=1;strokeColor=none;fillColor=none;align=center;verticalAlign=middle;whiteSpace=wrap;rounded=0;" parent="1" vertex="1">
          <mxGeometry x="1047.5" y="130" width="60" height="30" as="geometry" />
        </mxCell>
        <mxCell id="zn4TOYktsXlcLtezzBeB-18" value="" style="rounded=0;orthogonalLoop=1;jettySize=auto;html=1;endArrow=none;endFill=0;sketch=0;sourcePerimeterSpacing=0;targetPerimeterSpacing=0;exitX=0;exitY=0;exitDx=0;exitDy=15;exitPerimeter=0;" parent="1" source="zn4TOYktsXlcLtezzBeB-21" target="zn4TOYktsXlcLtezzBeB-20" edge="1">
          <mxGeometry relative="1" as="geometry">
            <mxPoint x="400" y="300" as="sourcePoint" />
          </mxGeometry>
        </mxCell>
        <mxCell id="zn4TOYktsXlcLtezzBeB-19" value="" style="rounded=0;orthogonalLoop=1;jettySize=auto;html=1;endArrow=halfCircle;endFill=0;entryX=0.5;entryY=0.5;endSize=6;strokeWidth=1;sketch=0;exitX=1;exitY=0.5;exitDx=0;exitDy=0;" parent="1" source="zn4TOYktsXlcLtezzBeB-16" target="zn4TOYktsXlcLtezzBeB-20" edge="1">
          <mxGeometry relative="1" as="geometry">
            <mxPoint x="420" y="245" as="sourcePoint" />
          </mxGeometry>
        </mxCell>
        <mxCell id="zn4TOYktsXlcLtezzBeB-20" value="" style="ellipse;whiteSpace=wrap;html=1;align=center;aspect=fixed;resizable=0;points=[];outlineConnect=0;sketch=0;" parent="1" vertex="1">
          <mxGeometry x="395" y="240" width="10" height="10" as="geometry" />
        </mxCell>
        <mxCell id="zn4TOYktsXlcLtezzBeB-21" value="StorageCore" style="shape=module;align=left;spacingLeft=20;align=center;verticalAlign=top;" parent="1" vertex="1">
          <mxGeometry x="500" y="230" width="100" height="50" as="geometry" />
        </mxCell>
        <mxCell id="zn4TOYktsXlcLtezzBeB-22" value="" style="rounded=0;orthogonalLoop=1;jettySize=auto;html=1;endArrow=none;endFill=0;sketch=0;sourcePerimeterSpacing=0;targetPerimeterSpacing=0;exitX=0;exitY=0;exitDx=0;exitDy=15;exitPerimeter=0;" parent="1" source="zn4TOYktsXlcLtezzBeB-25" target="zn4TOYktsXlcLtezzBeB-20" edge="1">
          <mxGeometry relative="1" as="geometry">
            <mxPoint x="400" y="310" as="sourcePoint" />
          </mxGeometry>
        </mxCell>
        <mxCell id="zn4TOYktsXlcLtezzBeB-25" value="Logger&#xa;Provider" style="shape=module;align=left;spacingLeft=20;align=center;verticalAlign=top;" parent="1" vertex="1">
          <mxGeometry x="470" y="320" width="100" height="50" as="geometry" />
        </mxCell>
        <mxCell id="zn4TOYktsXlcLtezzBeB-26" value="" style="rounded=0;orthogonalLoop=1;jettySize=auto;html=1;endArrow=none;endFill=0;sketch=0;sourcePerimeterSpacing=0;targetPerimeterSpacing=0;exitX=0;exitY=0;exitDx=0;exitDy=15;exitPerimeter=0;" parent="1" source="zn4TOYktsXlcLtezzBeB-29" target="zn4TOYktsXlcLtezzBeB-28" edge="1">
          <mxGeometry relative="1" as="geometry">
            <mxPoint x="690" y="295" as="sourcePoint" />
          </mxGeometry>
        </mxCell>
        <mxCell id="zn4TOYktsXlcLtezzBeB-27" value="" style="rounded=0;orthogonalLoop=1;jettySize=auto;html=1;endArrow=halfCircle;endFill=0;entryX=0.5;entryY=0.5;endSize=6;strokeWidth=1;sketch=0;exitX=1;exitY=0.5;exitDx=0;exitDy=0;" parent="1" source="zn4TOYktsXlcLtezzBeB-21" target="zn4TOYktsXlcLtezzBeB-28" edge="1">
          <mxGeometry relative="1" as="geometry">
            <mxPoint x="730" y="295" as="sourcePoint" />
          </mxGeometry>
        </mxCell>
        <mxCell id="zn4TOYktsXlcLtezzBeB-28" value="" style="ellipse;whiteSpace=wrap;html=1;align=center;aspect=fixed;resizable=0;points=[];outlineConnect=0;sketch=0;" parent="1" vertex="1">
          <mxGeometry x="690" y="250" width="10" height="10" as="geometry" />
        </mxCell>
        <mxCell id="zn4TOYktsXlcLtezzBeB-29" value="BDProvider" style="shape=module;align=left;spacingLeft=20;align=center;verticalAlign=top;" parent="1" vertex="1">
          <mxGeometry x="740" y="240" width="100" height="50" as="geometry" />
        </mxCell>
        <mxCell id="zn4TOYktsXlcLtezzBeB-33" value="" style="rounded=0;orthogonalLoop=1;jettySize=auto;html=1;endArrow=none;endFill=0;sketch=0;sourcePerimeterSpacing=0;targetPerimeterSpacing=0;exitX=1;exitY=0.25;exitDx=0;exitDy=0;" parent="1" source="zn4TOYktsXlcLtezzBeB-25" target="zn4TOYktsXlcLtezzBeB-28" edge="1">
          <mxGeometry relative="1" as="geometry">
            <mxPoint x="675" y="175" as="sourcePoint" />
          </mxGeometry>
        </mxCell>
        <mxCell id="zn4TOYktsXlcLtezzBeB-36" value="Desarrollo: Paginas Web, Componente o Libreria de Storage, Componente o Libreria de Persistencia" style="text;html=1;strokeColor=#6c8ebf;fillColor=#dae8fc;align=left;verticalAlign=middle;whiteSpace=wrap;rounded=0;" parent="1" vertex="1">
          <mxGeometry x="100" y="310" width="230" height="90" as="geometry" />
        </mxCell>
        <mxCell id="zn4TOYktsXlcLtezzBeB-37" value="Vista de Procesos" style="text;html=1;strokeColor=#9673a6;fillColor=#e1d5e7;align=left;verticalAlign=middle;whiteSpace=wrap;rounded=0;" parent="1" vertex="1">
          <mxGeometry x="10" y="470" width="80" height="70" as="geometry" />
        </mxCell>
        <mxCell id="zn4TOYktsXlcLtezzBeB-44" value="" style="edgeStyle=orthogonalEdgeStyle;rounded=0;orthogonalLoop=1;jettySize=auto;html=1;endArrow=none;endFill=0;" parent="1" source="zn4TOYktsXlcLtezzBeB-40" target="zn4TOYktsXlcLtezzBeB-42" edge="1">
          <mxGeometry relative="1" as="geometry" />
        </mxCell>
        <mxCell id="zn4TOYktsXlcLtezzBeB-40" value="«component»&lt;br&gt;&lt;b&gt;&amp;lt;&amp;lt;process&amp;gt;&amp;gt;&lt;br&gt;WebBrowser&lt;br&gt;&lt;/b&gt;" style="html=1;dropTarget=0;" parent="1" vertex="1">
          <mxGeometry x="430" y="440" width="180" height="60" as="geometry" />
        </mxCell>
        <mxCell id="zn4TOYktsXlcLtezzBeB-41" value="" style="shape=module;jettyWidth=8;jettyHeight=4;" parent="zn4TOYktsXlcLtezzBeB-40" vertex="1">
          <mxGeometry x="1" width="20" height="20" relative="1" as="geometry">
            <mxPoint x="-27" y="7" as="offset" />
          </mxGeometry>
        </mxCell>
        <mxCell id="zn4TOYktsXlcLtezzBeB-48" style="edgeStyle=orthogonalEdgeStyle;rounded=0;orthogonalLoop=1;jettySize=auto;html=1;entryX=0.5;entryY=0;entryDx=0;entryDy=0;endArrow=none;endFill=0;" parent="1" source="zn4TOYktsXlcLtezzBeB-42" target="zn4TOYktsXlcLtezzBeB-46" edge="1">
          <mxGeometry relative="1" as="geometry" />
        </mxCell>
        <mxCell id="zn4TOYktsXlcLtezzBeB-42" value="«component»&lt;br&gt;&lt;b&gt;&amp;lt;&amp;lt;process&amp;gt;&amp;gt;&lt;br&gt;ServerWebApp&lt;br&gt;&lt;/b&gt;" style="html=1;dropTarget=0;" parent="1" vertex="1">
          <mxGeometry x="430" y="555" width="180" height="60" as="geometry" />
        </mxCell>
        <mxCell id="zn4TOYktsXlcLtezzBeB-43" value="" style="shape=module;jettyWidth=8;jettyHeight=4;" parent="zn4TOYktsXlcLtezzBeB-42" vertex="1">
          <mxGeometry x="1" width="20" height="20" relative="1" as="geometry">
            <mxPoint x="-27" y="7" as="offset" />
          </mxGeometry>
        </mxCell>
        <mxCell id="zn4TOYktsXlcLtezzBeB-45" value="&lt;&lt;communicate&gt;&gt;" style="text;align=center;fontStyle=1;verticalAlign=middle;spacingLeft=3;spacingRight=3;strokeColor=none;rotatable=0;points=[[0,0.5],[1,0.5]];portConstraint=eastwest;" parent="1" vertex="1">
          <mxGeometry x="540" y="520" width="80" height="26" as="geometry" />
        </mxCell>
        <mxCell id="zn4TOYktsXlcLtezzBeB-52" style="edgeStyle=orthogonalEdgeStyle;rounded=0;orthogonalLoop=1;jettySize=auto;html=1;entryX=0.5;entryY=0;entryDx=0;entryDy=0;endArrow=none;endFill=0;" parent="1" source="zn4TOYktsXlcLtezzBeB-46" target="zn4TOYktsXlcLtezzBeB-50" edge="1">
          <mxGeometry relative="1" as="geometry" />
        </mxCell>
        <mxCell id="zn4TOYktsXlcLtezzBeB-46" value="«component»&lt;br&gt;&lt;b&gt;&amp;lt;&amp;lt;process&amp;gt;&amp;gt;&lt;br&gt;ServerApp&lt;br&gt;&lt;/b&gt;" style="html=1;dropTarget=0;" parent="1" vertex="1">
          <mxGeometry x="430" y="670" width="180" height="60" as="geometry" />
        </mxCell>
        <mxCell id="zn4TOYktsXlcLtezzBeB-47" value="" style="shape=module;jettyWidth=8;jettyHeight=4;" parent="zn4TOYktsXlcLtezzBeB-46" vertex="1">
          <mxGeometry x="1" width="20" height="20" relative="1" as="geometry">
            <mxPoint x="-27" y="7" as="offset" />
          </mxGeometry>
        </mxCell>
        <mxCell id="zn4TOYktsXlcLtezzBeB-49" value="&lt;&lt;communicate&gt;&gt;" style="text;align=center;fontStyle=1;verticalAlign=middle;spacingLeft=3;spacingRight=3;strokeColor=none;rotatable=0;points=[[0,0.5],[1,0.5]];portConstraint=eastwest;" parent="1" vertex="1">
          <mxGeometry x="540" y="630" width="80" height="26" as="geometry" />
        </mxCell>
        <mxCell id="zn4TOYktsXlcLtezzBeB-50" value="«component»&lt;br&gt;&lt;b&gt;&amp;lt;&amp;lt;process&amp;gt;&amp;gt;&lt;br&gt;ServerBD&lt;br&gt;&lt;/b&gt;" style="html=1;dropTarget=0;" parent="1" vertex="1">
          <mxGeometry x="430" y="780" width="180" height="60" as="geometry" />
        </mxCell>
        <mxCell id="zn4TOYktsXlcLtezzBeB-51" value="" style="shape=module;jettyWidth=8;jettyHeight=4;" parent="zn4TOYktsXlcLtezzBeB-50" vertex="1">
          <mxGeometry x="1" width="20" height="20" relative="1" as="geometry">
            <mxPoint x="-27" y="7" as="offset" />
          </mxGeometry>
        </mxCell>
        <mxCell id="zn4TOYktsXlcLtezzBeB-53" value="&lt;&lt;communicate&gt;&gt;" style="text;align=center;fontStyle=1;verticalAlign=middle;spacingLeft=3;spacingRight=3;strokeColor=none;rotatable=0;points=[[0,0.5],[1,0.5]];portConstraint=eastwest;" parent="1" vertex="1">
          <mxGeometry x="540" y="740" width="80" height="26" as="geometry" />
        </mxCell>
        <mxCell id="zn4TOYktsXlcLtezzBeB-54" value="InfraTI: Balancear la carga de Web, Webapp, ServerApp, ServerBD&lt;br&gt;Redes: Balancear los canales de comunicaciones entre ServerWeb, ServerApp, ServerBD" style="text;html=1;strokeColor=#6c8ebf;fillColor=#dae8fc;align=left;verticalAlign=middle;whiteSpace=wrap;rounded=0;" parent="1" vertex="1">
          <mxGeometry x="100" y="470" width="230" height="90" as="geometry" />
        </mxCell>
        <mxCell id="zn4TOYktsXlcLtezzBeB-55" value="Vista de Implementación" style="text;html=1;strokeColor=#9673a6;fillColor=#e1d5e7;align=left;verticalAlign=middle;whiteSpace=wrap;rounded=0;" parent="1" vertex="1">
          <mxGeometry x="10" y="880" width="90" height="70" as="geometry" />
        </mxCell>
        <mxCell id="zn4TOYktsXlcLtezzBeB-56" value="«component»&lt;br&gt;&lt;b&gt;webapp.war&lt;/b&gt;" style="html=1;dropTarget=0;" parent="1" vertex="1">
          <mxGeometry x="430" y="1040" width="180" height="50" as="geometry" />
        </mxCell>
        <mxCell id="zn4TOYktsXlcLtezzBeB-57" value="" style="shape=module;jettyWidth=8;jettyHeight=4;" parent="zn4TOYktsXlcLtezzBeB-56" vertex="1">
          <mxGeometry x="1" width="20" height="20" relative="1" as="geometry">
            <mxPoint x="-27" y="7" as="offset" />
          </mxGeometry>
        </mxCell>
        <mxCell id="zn4TOYktsXlcLtezzBeB-58" value="«component»&lt;br&gt;&lt;b&gt;APIStorage.jar&lt;/b&gt;" style="html=1;dropTarget=0;" parent="1" vertex="1">
          <mxGeometry x="430" y="940" width="180" height="50" as="geometry" />
        </mxCell>
        <mxCell id="zn4TOYktsXlcLtezzBeB-59" value="" style="shape=module;jettyWidth=8;jettyHeight=4;" parent="zn4TOYktsXlcLtezzBeB-58" vertex="1">
          <mxGeometry x="1" width="20" height="20" relative="1" as="geometry">
            <mxPoint x="-27" y="7" as="offset" />
          </mxGeometry>
        </mxCell>
        <mxCell id="zn4TOYktsXlcLtezzBeB-60" value="Use" style="endArrow=open;endSize=12;dashed=1;html=1;rounded=0;exitX=0.5;exitY=0;exitDx=0;exitDy=0;entryX=0.5;entryY=1;entryDx=0;entryDy=0;" parent="1" source="zn4TOYktsXlcLtezzBeB-56" target="zn4TOYktsXlcLtezzBeB-58" edge="1">
          <mxGeometry width="160" relative="1" as="geometry">
            <mxPoint x="450" y="940" as="sourcePoint" />
            <mxPoint x="610" y="940" as="targetPoint" />
          </mxGeometry>
        </mxCell>
        <mxCell id="zn4TOYktsXlcLtezzBeB-61" value="«component»&lt;br&gt;&lt;b&gt;APIStorage.war&lt;/b&gt;" style="html=1;dropTarget=0;" parent="1" vertex="1">
          <mxGeometry x="660" y="1040" width="180" height="50" as="geometry" />
        </mxCell>
        <mxCell id="zn4TOYktsXlcLtezzBeB-62" value="" style="shape=module;jettyWidth=8;jettyHeight=4;" parent="zn4TOYktsXlcLtezzBeB-61" vertex="1">
          <mxGeometry x="1" width="20" height="20" relative="1" as="geometry">
            <mxPoint x="-27" y="7" as="offset" />
          </mxGeometry>
        </mxCell>
        <mxCell id="zn4TOYktsXlcLtezzBeB-63" value="«component»&lt;br&gt;&lt;b&gt;StorageCore.jar&lt;/b&gt;" style="html=1;dropTarget=0;" parent="1" vertex="1">
          <mxGeometry x="660" y="940" width="180" height="50" as="geometry" />
        </mxCell>
        <mxCell id="zn4TOYktsXlcLtezzBeB-64" value="" style="shape=module;jettyWidth=8;jettyHeight=4;" parent="zn4TOYktsXlcLtezzBeB-63" vertex="1">
          <mxGeometry x="1" width="20" height="20" relative="1" as="geometry">
            <mxPoint x="-27" y="7" as="offset" />
          </mxGeometry>
        </mxCell>
        <mxCell id="zn4TOYktsXlcLtezzBeB-65" value="Use" style="endArrow=open;endSize=12;dashed=1;html=1;rounded=0;exitX=0.5;exitY=0;exitDx=0;exitDy=0;entryX=0.5;entryY=1;entryDx=0;entryDy=0;" parent="1" source="zn4TOYktsXlcLtezzBeB-61" target="zn4TOYktsXlcLtezzBeB-63" edge="1">
          <mxGeometry width="160" relative="1" as="geometry">
            <mxPoint x="570" y="940" as="sourcePoint" />
            <mxPoint x="730" y="940" as="targetPoint" />
          </mxGeometry>
        </mxCell>
        <mxCell id="zn4TOYktsXlcLtezzBeB-66" value="«component»&lt;br&gt;&lt;b&gt;StorageCore.jar&lt;/b&gt;" style="html=1;dropTarget=0;" parent="1" vertex="1">
          <mxGeometry x="880" y="1040" width="180" height="50" as="geometry" />
        </mxCell>
        <mxCell id="zn4TOYktsXlcLtezzBeB-67" value="" style="shape=module;jettyWidth=8;jettyHeight=4;" parent="zn4TOYktsXlcLtezzBeB-66" vertex="1">
          <mxGeometry x="1" width="20" height="20" relative="1" as="geometry">
            <mxPoint x="-27" y="7" as="offset" />
          </mxGeometry>
        </mxCell>
        <mxCell id="zn4TOYktsXlcLtezzBeB-68" value="«component»&lt;br&gt;&lt;b&gt;BDProvider.jar&lt;/b&gt;" style="html=1;dropTarget=0;" parent="1" vertex="1">
          <mxGeometry x="880" y="940" width="180" height="50" as="geometry" />
        </mxCell>
        <mxCell id="zn4TOYktsXlcLtezzBeB-69" value="" style="shape=module;jettyWidth=8;jettyHeight=4;" parent="zn4TOYktsXlcLtezzBeB-68" vertex="1">
          <mxGeometry x="1" width="20" height="20" relative="1" as="geometry">
            <mxPoint x="-27" y="7" as="offset" />
          </mxGeometry>
        </mxCell>
        <mxCell id="zn4TOYktsXlcLtezzBeB-70" value="Use" style="endArrow=open;endSize=12;dashed=1;html=1;rounded=0;exitX=0.5;exitY=0;exitDx=0;exitDy=0;entryX=0.5;entryY=1;entryDx=0;entryDy=0;" parent="1" source="zn4TOYktsXlcLtezzBeB-66" target="zn4TOYktsXlcLtezzBeB-68" edge="1">
          <mxGeometry width="160" relative="1" as="geometry">
            <mxPoint x="820" y="940" as="sourcePoint" />
            <mxPoint x="980" y="940" as="targetPoint" />
          </mxGeometry>
        </mxCell>
        <mxCell id="zn4TOYktsXlcLtezzBeB-71" value="" style="shape=curlyBracket;whiteSpace=wrap;html=1;rounded=1;direction=south;" parent="1" vertex="1">
          <mxGeometry x="430" y="905" width="410" height="20" as="geometry" />
        </mxCell>
        <mxCell id="zn4TOYktsXlcLtezzBeB-72" value="ServidorWeb" style="text;html=1;strokeColor=none;fillColor=none;align=center;verticalAlign=middle;whiteSpace=wrap;rounded=0;fontSize=17;fontStyle=1" parent="1" vertex="1">
          <mxGeometry x="572.5" y="870" width="125" height="30" as="geometry" />
        </mxCell>
        <mxCell id="zn4TOYktsXlcLtezzBeB-73" value="" style="shape=curlyBracket;whiteSpace=wrap;html=1;rounded=1;direction=south;" parent="1" vertex="1">
          <mxGeometry x="880" y="905" width="180" height="20" as="geometry" />
        </mxCell>
        <mxCell id="zn4TOYktsXlcLtezzBeB-74" value="ServidorApp" style="text;html=1;strokeColor=none;fillColor=none;align=center;verticalAlign=middle;whiteSpace=wrap;rounded=0;fontSize=17;fontStyle=1" parent="1" vertex="1">
          <mxGeometry x="907.5" y="870" width="125" height="30" as="geometry" />
        </mxCell>
        <mxCell id="zn4TOYktsXlcLtezzBeB-75" value="InfraTI: Balancear la carga de Web, Webapp, ServerApp, ServerBD&lt;br&gt;Redes: Balancear los canales de comunicaciones entre ServerWeb, ServerApp, ServerBD" style="text;html=1;strokeColor=#6c8ebf;fillColor=#dae8fc;align=left;verticalAlign=middle;whiteSpace=wrap;rounded=0;" parent="1" vertex="1">
          <mxGeometry x="120" y="880" width="230" height="90" as="geometry" />
        </mxCell>
        <mxCell id="tnkUw2Lxri4dGKKTmfUR-1" value="" style="rounded=0;orthogonalLoop=1;jettySize=auto;html=1;endArrow=none;endFill=0;sketch=0;sourcePerimeterSpacing=0;targetPerimeterSpacing=0;exitX=0;exitY=0;exitDx=0;exitDy=15;exitPerimeter=0;" parent="1" source="tnkUw2Lxri4dGKKTmfUR-3" target="tnkUw2Lxri4dGKKTmfUR-2" edge="1">
          <mxGeometry relative="1" as="geometry">
            <mxPoint x="120" y="315" as="sourcePoint" />
          </mxGeometry>
        </mxCell>
        <mxCell id="tnkUw2Lxri4dGKKTmfUR-2" value="" style="ellipse;whiteSpace=wrap;html=1;align=center;aspect=fixed;resizable=0;points=[];outlineConnect=0;sketch=0;" parent="1" vertex="1">
          <mxGeometry x="1020" y="160" width="10" height="10" as="geometry" />
        </mxCell>
        <mxCell id="tnkUw2Lxri4dGKKTmfUR-3" value="WebApp" style="shape=module;align=left;spacingLeft=20;align=center;verticalAlign=top;" parent="1" vertex="1">
          <mxGeometry x="1120" y="150" width="100" height="50" as="geometry" />
        </mxCell>
      </root>
    </mxGraphModel>
  </diagram>
</mxfile>
